<svg width="61" height="77" viewBox="0 0 61 77" fill="none" xmlns="http://www.w3.org/2000/svg">
<path d="M22.8604 75.2806V61.3803C22.8604 60.8358 23.1552 60.3224 23.6286 60.0501L45.0845 47.6355C45.5578 47.3632 45.8527 46.8576 45.8527 46.3054V21.3827C45.8527 20.8382 46.1476 20.3248 46.6209 20.0526L58.703 13.0596C59.7195 12.4685 60.9999 13.2074 60.9999 14.3898V54.9785C60.9999 55.523 60.705 56.0364 60.2317 56.3086L25.165 76.603C24.1485 77.1942 22.8681 76.4552 22.8681 75.2729L22.8604 75.2806Z" fill="#161616"/>
<path d="M0.00775982 61.5579V21.5448C0.00775982 21.0003 0.302633 20.4869 0.775982 20.2146L35.346 0.208065C36.3625 -0.383109 37.6429 0.355858 37.6429 1.53821V41.5591C37.6429 42.1036 37.348 42.617 36.8747 42.8892L14.6505 55.7473L2.29691 62.8958C1.28037 63.487 0 62.748 0 61.5656L0.00775982 61.5579Z" fill="#161616"/>
</svg>
