<svg width="98" height="25" viewBox="0 0 98 25" fill="none" xmlns="http://www.w3.org/2000/svg">
<path d="M7.16309 23.5847V19.2292C7.16309 19.0586 7.25548 18.8977 7.4038 18.8124L14.1267 14.9225C14.275 14.8372 14.3674 14.6788 14.3674 14.5057V6.69656C14.3674 6.52594 14.4598 6.36508 14.6081 6.27978L18.3939 4.08863C18.7124 3.9034 19.1136 4.13494 19.1136 4.50541V17.2233C19.1136 17.3939 19.0212 17.5548 18.8729 17.6401L7.88522 23.999C7.5667 24.1843 7.16552 23.9527 7.16552 23.5823L7.16309 23.5847Z" fill="#ffffff"/>
<path d="M0.00243143 19.2883V6.75074C0.00243143 6.58013 0.0948258 6.41927 0.243143 6.33396L11.0752 0.0651941C11.3937 -0.120042 11.7949 0.111503 11.7949 0.481975V13.0219C11.7949 13.1926 11.7025 13.3534 11.5542 13.4387L4.59054 17.4676L0.719703 19.7075C0.401186 19.8927 0 19.6612 0 19.2907L0.00243143 19.2883Z" fill="#ffffff"/>
<path d="M96.2458 17.2051H97.9998L92.1485 8.4375H89.2751L83.4238 17.2051H85.1778L86.1534 15.7431H95.2703L96.2458 17.2051ZM87.1289 14.2812L90.7118 8.91164L94.2947 14.2812H87.127H87.1289Z" fill="#ffffff"/>
<path d="M67.389 8.4375H65.9326V15.7431V17.2051H67.389H80.5559V15.7431H67.389V8.4375Z" fill="#ffffff"/>
<path d="M30.9473 9.89744H37.5317V17.2051H38.9881V9.89744H45.5706V8.4375H30.9473V9.89744Z" fill="#ffffff"/>
<path d="M48.4404 8.4375V9.89744V12.0903V13.5503V15.7431V17.2051H49.8988H63.0164V15.7431H49.8988V13.5503H63.0164V12.0903H49.8988V9.89744H63.0164V8.4375H49.8988H48.4404Z" fill="#ffffff"/>
</svg>
